<?xml version="1.0" encoding="UTF-8" standalone="no"?>
<svg
   xmlns:dc="http://purl.org/dc/elements/1.1/"
   xmlns:cc="http://creativecommons.org/ns#"
   xmlns:rdf="http://www.w3.org/1999/02/22-rdf-syntax-ns#"
   xmlns:svg="http://www.w3.org/2000/svg"
   xmlns="http://www.w3.org/2000/svg"
   xmlns:sodipodi="http://sodipodi.sourceforge.net/DTD/sodipodi-0.dtd"
   xmlns:inkscape="http://www.inkscape.org/namespaces/inkscape"
   width="14.55208mm"
   height="17.197922mm"
   viewBox="0 0 14.552081 17.197922"
   version="1.1"
   id="svg8"
   inkscape:version="1.0.2 (394de47547, 2021-03-26)"
   sodipodi:docname="tunecraft.svg">
  <defs
     id="defs2" />
  <sodipodi:namedview
     id="base"
     pagecolor="#ffffff"
     bordercolor="#666666"
     borderopacity="1.0"
     inkscape:pageopacity="0.0"
     inkscape:pageshadow="2"
     inkscape:zoom="5.4829418"
     inkscape:cx="39.6788"
     inkscape:cy="3.4059302"
     inkscape:document-units="mm"
     inkscape:current-layer="layer1"
     inkscape:document-rotation="0"
     showgrid="true"
     inkscape:window-width="1623"
     inkscape:window-height="1026"
     inkscape:window-x="57"
     inkscape:window-y="54"
     inkscape:window-maximized="1"
     inkscape:snap-bbox="true">
    <inkscape:grid
       type="xygrid"
       id="grid833"
       originx="-62.177086"
       originy="-103.1875" />
  </sodipodi:namedview>
  <metadata
     id="metadata5">
    <rdf:RDF>
      <cc:Work
         rdf:about="">
        <dc:format>image/svg+xml</dc:format>
        <dc:type
           rdf:resource="http://purl.org/dc/dcmitype/StillImage" />
        <dc:title />
      </cc:Work>
    </rdf:RDF>
  </metadata>
  <g
     inkscape:label="Layer 1"
     inkscape:groupmode="layer"
     id="layer1"
     transform="translate(-62.177078,-103.1875)">
    <rect
       style="fill:#364e59;fill-opacity:1;stroke:none;stroke-width:0.529167;stop-color:#000000"
       id="rect874"
       width="14.55208"
       height="17.197922"
       x="62.177078"
       y="103.1875"
       ry="1.3229166"
       rx="1.3229166" />
    <path
       style="font-style:normal;font-variant:normal;font-weight:normal;font-stretch:normal;font-size:10.5833px;line-height:1.25;font-family:'Noto Color Emoji';-inkscape-font-specification:'Noto Color Emoji';fill:#ffffff;stroke-width:0.264583"
       d="m 63.499995,104.51041 h 2.191074 v 0.73897 h -1.397327 v 7.95815 h 1.397327 v 0.73897 h -2.191074 z"
       id="path851"
       sodipodi:nodetypes="ccccccccc" />
    <path
       style="font-style:normal;font-variant:normal;font-weight:normal;font-stretch:normal;font-size:10.5833px;line-height:1.25;font-family:'Noto Color Emoji';-inkscape-font-specification:'Noto Color Emoji';fill:#ffc022;stroke-width:0.264583"
       d="m 68.243905,105.05819 3.57083,1.04386 0.0155,0.0207 v 6.71275 q 0,0.80098 -0.992184,1.01802 h -0.279052 q -1.100705,0 -1.100705,-0.84749 v -0.0207 q 0,-0.65112 0.91467,-0.76481 l 0.201538,-0.0155 q 0.444416,0 0.862993,0.29972 v -5.34849 l -2.831859,-0.87333 v 5.48285 q 0,0.70796 -0.775144,0.99735 l -0.346231,0.0413 h -0.134358 q -1.116208,0 -1.116208,-0.80098 v -0.0362 q 0,-0.63045 0.878497,-0.80615 l 0.222208,-0.0207 q 0.459918,0 0.873329,0.34623 v -6.38202 z"
       id="path849" />
    <path
       style="font-style:normal;font-variant:normal;font-weight:normal;font-stretch:normal;font-size:10.5833px;line-height:1.25;font-family:'Noto Color Emoji';-inkscape-font-specification:'Noto Color Emoji';fill:#ffffff;stroke-width:0.264583"
       d="m 75.406245,104.51041 v 9.43609 h -2.191074 v -0.73897 h 1.397321 v -7.95815 h -1.397321 v -0.73897 z"
       id="path843"
       sodipodi:nodetypes="ccccccccc" />
    <g
       id="g1549"
       style="fill:#ffc022"
       transform="translate(0,-0.23706333)">
      <path
         d="m 64.815726,115.35833 h -0.429207 v 1.44381 h -0.351711 v -1.44381 h -0.422054 v -0.2921 h 1.202972 z"
         style="font-style:normal;font-variant:normal;font-weight:bold;font-stretch:normal;font-size:2.44171px;line-height:1.25;font-family:'Roboto Condensed';-inkscape-font-specification:'Roboto Condensed, Bold';font-variation-settings:normal;vector-effect:none;fill:#ffc022;fill-opacity:1;stroke-width:0.264583;stroke-linecap:butt;stroke-linejoin:miter;stroke-miterlimit:4;stroke-dasharray:none;stroke-dashoffset:0;stroke-opacity:1;stop-color:#000000"
         id="path1510" />
      <path
         d="m 68.389478,115.06623 v 1.20178 q -0.0024,0.27064 -0.14903,0.4149 -0.146646,0.14307 -0.420861,0.14307 -0.278985,0 -0.426823,-0.14545 -0.146645,-0.14545 -0.146645,-0.42086 v -1.19344 h 0.352903 v 1.19463 q 0,0.14784 0.04769,0.21103 0.04769,0.0632 0.172875,0.0632 0.125185,0 0.171682,-0.062 0.0465,-0.0632 0.04769,-0.20626 v -1.20059 z"
         style="font-style:normal;font-variant:normal;font-weight:bold;font-stretch:normal;font-size:2.44171px;line-height:1.25;font-family:'Roboto Condensed';-inkscape-font-specification:'Roboto Condensed, Bold';font-variation-settings:normal;vector-effect:none;fill:#ffc022;fill-opacity:1;stroke-width:0.264583;stroke-linecap:butt;stroke-linejoin:miter;stroke-miterlimit:4;stroke-dasharray:none;stroke-dashoffset:0;stroke-opacity:1;stop-color:#000000"
         id="path1512" />
      <path
         d="M 72.028209,116.80214 H 71.67769 l -0.512664,-1.13859 v 1.13859 h -0.350519 v -1.73591 h 0.350519 l 0.513856,1.13979 v -1.13979 h 0.349327 z"
         style="font-style:normal;font-variant:normal;font-weight:bold;font-stretch:normal;font-size:2.44171px;line-height:1.25;font-family:'Roboto Condensed';-inkscape-font-specification:'Roboto Condensed, Bold';font-variation-settings:normal;vector-effect:none;fill:#ffc022;fill-opacity:1;stroke-width:0.264583;stroke-linecap:butt;stroke-linejoin:miter;stroke-miterlimit:4;stroke-dasharray:none;stroke-dashoffset:0;stroke-opacity:1;stop-color:#000000"
         id="path1514" />
      <path
         d="m 75.423125,116.05103 h -0.546047 v 0.4602 h 0.646195 v 0.29091 h -0.996714 v -1.73591 h 0.994329 v 0.2921 h -0.64381 v 0.41013 h 0.546047 z"
         style="font-style:normal;font-variant:normal;font-weight:bold;font-stretch:normal;font-size:2.44171px;line-height:1.25;font-family:'Roboto Condensed';-inkscape-font-specification:'Roboto Condensed, Bold';font-variation-settings:normal;vector-effect:none;fill:#ffc022;fill-opacity:1;stroke-width:0.264583;stroke-linecap:butt;stroke-linejoin:miter;stroke-miterlimit:4;stroke-dasharray:none;stroke-dashoffset:0;stroke-opacity:1;stop-color:#000000"
         id="path1516" />
    </g>
    <g
       id="g1543"
       style="fill:#ffc022"
       transform="translate(0,-0.23706333)">
      <path
         d="m 64.760505,118.6921 q -0.01311,0.29687 -0.166913,0.44947 -0.1538,0.15261 -0.433976,0.15261 -0.294484,0 -0.45186,-0.19314 -0.156183,-0.19434 -0.156183,-0.5532 v -0.2921 q 0,-0.35767 0.162145,-0.55082 0.162144,-0.19433 0.450667,-0.19433 0.283753,0 0.430399,0.15857 0.147838,0.15856 0.168106,0.45543 h -0.351711 q -0.0048,-0.1836 -0.05723,-0.25275 -0.05127,-0.0704 -0.189566,-0.0704 -0.140685,0 -0.199105,0.099 -0.05842,0.0978 -0.062,0.3231 v 0.32786 q 0,0.25872 0.05723,0.35529 0.05842,0.0966 0.199104,0.0966 0.1383,0 0.190758,-0.0668 0.05246,-0.068 0.05961,-0.24441 z"
         style="font-style:normal;font-variant:normal;font-weight:bold;font-stretch:normal;font-size:2.44171px;line-height:1.25;font-family:'Roboto Condensed';-inkscape-font-specification:'Roboto Condensed, Bold';font-variation-settings:normal;vector-effect:none;fill:#ffc022;fill-opacity:1;stroke-width:0.264583;stroke-linecap:butt;stroke-linejoin:miter;stroke-miterlimit:4;stroke-dasharray:none;stroke-dashoffset:0;stroke-opacity:1;stop-color:#000000"
         id="path1518" />
      <path
         d="m 66.803638,118.63606 h -0.174067 v 0.63427 h -0.350519 v -1.7359 h 0.559161 q 0.263486,0 0.406555,0.13711 0.144261,0.13592 0.144261,0.38748 0,0.34575 -0.251563,0.48405 l 0.304021,0.71057 v 0.0167 h -0.376748 z m -0.174067,-0.2921 h 0.199104 q 0.104918,0 0.157376,-0.0691 0.05246,-0.0703 0.05246,-0.18718 0,-0.2611 -0.203873,-0.2611 h -0.205066 z"
         style="font-style:normal;font-variant:normal;font-weight:bold;font-stretch:normal;font-size:2.44171px;line-height:1.25;font-family:'Roboto Condensed';-inkscape-font-specification:'Roboto Condensed, Bold';font-variation-settings:normal;vector-effect:none;fill:#ffc022;fill-opacity:1;stroke-width:0.264583;stroke-linecap:butt;stroke-linejoin:miter;stroke-miterlimit:4;stroke-dasharray:none;stroke-dashoffset:0;stroke-opacity:1;stop-color:#000000"
         id="path1520" />
      <path
         d="M 69.800569,118.91505 H 69.32248 l -0.093,0.35528 h -0.370787 l 0.54247,-1.7359 h 0.320713 l 0.546046,1.7359 h -0.374359 z m -0.401786,-0.2921 h 0.32429 l -0.162145,-0.61878 z"
         style="font-style:normal;font-variant:normal;font-weight:bold;font-stretch:normal;font-size:2.44171px;line-height:1.25;font-family:'Roboto Condensed';-inkscape-font-specification:'Roboto Condensed, Bold';font-variation-settings:normal;vector-effect:none;fill:#ffc022;fill-opacity:1;stroke-width:0.264583;stroke-linecap:butt;stroke-linejoin:miter;stroke-miterlimit:4;stroke-dasharray:none;stroke-dashoffset:0;stroke-opacity:1;stop-color:#000000"
         id="path1522" />
      <path
         d="m 72.681245,118.56214 h -0.544854 v 0.70819 h -0.350519 v -1.7359 h 0.960947 v 0.2921 h -0.610428 v 0.44471 h 0.544854 z"
         style="font-style:normal;font-variant:normal;font-weight:bold;font-stretch:normal;font-size:2.44171px;line-height:1.25;font-family:'Roboto Condensed';-inkscape-font-specification:'Roboto Condensed, Bold';font-variation-settings:normal;vector-effect:none;fill:#ffc022;fill-opacity:1;stroke-width:0.264583;stroke-linecap:butt;stroke-linejoin:miter;stroke-miterlimit:4;stroke-dasharray:none;stroke-dashoffset:0;stroke-opacity:1;stop-color:#000000"
         id="path1524" />
      <path
         d="m 75.570869,117.82653 h -0.429207 v 1.4438 h -0.351711 v -1.4438 h -0.422053 v -0.2921 h 1.202971 z"
         style="font-style:normal;font-variant:normal;font-weight:bold;font-stretch:normal;font-size:2.44171px;line-height:1.25;font-family:'Roboto Condensed';-inkscape-font-specification:'Roboto Condensed, Bold';font-variation-settings:normal;vector-effect:none;fill:#ffc022;fill-opacity:1;stroke-width:0.264583;stroke-linecap:butt;stroke-linejoin:miter;stroke-miterlimit:4;stroke-dasharray:none;stroke-dashoffset:0;stroke-opacity:1;stop-color:#000000"
         id="path1526" />
    </g>
  </g>
</svg>
